# xmcd
#
# Track frame offsets:
#	150
#	18492
#	42425
#	50785
#	82712
#	98017
#	120777
#	145417
#	172190
#
# Disc length: 2660 seconds
#
# Revision: 2
# Processed by: cddbd v1.5.2PL0 Copyright (c) Steve Scherf et al.
# Submitted via: EasyCDDAExtractor 15.3.0.1
#
DISCID=6f0a6209
DTITLE=Astor Piazzolla - Milonga del Angel
DYEAR=1998
DGENRE=Tango
TTITLE0=Tango diablo
TTITLE1=Romance del diablo
TTITLE2=Vayamos al diablo
TTITLE3=Canto de Octubre
TTITLE4=Mar del Plata 70
TTITLE5=Todo Buenos Aires
TTITLE6=Milonga del Ángel
TTITLE7=Resurrección del ángel
TTITLE8=La mufa
EXTD=ID3G: 113
EXTT0=
EXTT1=
EXTT2=
EXTT3=
EXTT4=
EXTT5=
EXTT6=
EXTT7=
EXTT8=
PLAYORDER=
